<svg width="320" height="200" viewBox="0 0 320 200" fill="none" xmlns="http://www.w3.org/2000/svg">
  <rect width="320" height="200" rx="24" fill="#061118"/>
  <circle cx="62" cy="52" r="2.5" fill="#83FFD8"/>
  <circle cx="106" cy="34" r="2" fill="#83FFD8"/>
  <circle cx="145" cy="62" r="2.5" fill="#83FFD8"/>
  <circle cx="229" cy="42" r="2" fill="#83FFD8"/>
  <circle cx="276" cy="62" r="2.5" fill="#83FFD8"/>
  <circle cx="252" cy="118" r="2" fill="#83FFD8"/>
  <circle cx="79" cy="121" r="2.5" fill="#83FFD8"/>
  <rect x="54" y="126" width="176" height="14" rx="7" stroke="#63FF8C" stroke-width="5"/>
  <path d="M86 133H202" stroke="#63FF8C" stroke-width="5" stroke-linecap="round" stroke-dasharray="7 10"/>
  <rect x="54" y="114" width="10" height="38" rx="5" fill="#63FF8C"/>
  <rect x="220" y="114" width="10" height="38" rx="5" fill="#63FF8C"/>
  <path d="M40 96H165" stroke="#83FFD8" stroke-width="8" stroke-linecap="round"/>
  <path d="M130 96L165 96" stroke="#D9FF7A" stroke-width="12" stroke-linecap="round"/>
  <path d="M165 96L276 52" stroke="#63FF8C" stroke-width="8" stroke-linecap="round"/>
  <circle cx="279" cy="51" r="18" fill="#D9FF7A"/>
  <circle cx="279" cy="51" r="28" stroke="#63FF8C" stroke-width="4" opacity="0.55"/>
</svg>
